<?xml version="1.0" encoding="UTF-8" standalone="no"?>
<!-- Created with Inkscape (http://www.inkscape.org/) -->

<svg
   xmlns:dc="http://purl.org/dc/elements/1.1/"
   xmlns:cc="http://creativecommons.org/ns#"
   xmlns:rdf="http://www.w3.org/1999/02/22-rdf-syntax-ns#"
   xmlns:svg="http://www.w3.org/2000/svg"
   xmlns="http://www.w3.org/2000/svg"
   xmlns:xlink="http://www.w3.org/1999/xlink"
   xmlns:sodipodi="http://sodipodi.sourceforge.net/DTD/sodipodi-0.dtd"
   xmlns:inkscape="http://www.inkscape.org/namespaces/inkscape"
   width="12.095396mm"
   height="7.4039693mm"
   viewBox="0 0 12.095396 7.4039693"
   version="1.1"
   id="svg1780"
   inkscape:version="0.92.3 (unknown)"
   sodipodi:docname="controller.svg">
  <defs
     id="defs1774">
    <linearGradient
       inkscape:collect="always"
       xlink:href="#linearGradient894"
       id="linearGradient2110"
       gradientUnits="userSpaceOnUse"
       x1="43.634144"
       y1="238.53841"
       x2="587.56696"
       y2="238.53841"
       gradientTransform="matrix(0.02211425,0,0,0.02211425,199.52291,105.73645)" />
    <linearGradient
       id="linearGradient894"
       inkscape:collect="always">
      <stop
         id="stop890"
         offset="0"
         style="stop-color:#02a6fc;stop-opacity:1" />
      <stop
         id="stop892"
         offset="1"
         style="stop-color:#1dffc4;stop-opacity:0.99215686" />
    </linearGradient>
    <linearGradient
       inkscape:collect="always"
       xlink:href="#linearGradient894"
       id="linearGradient2605"
       gradientUnits="userSpaceOnUse"
       gradientTransform="matrix(0.02211425,0,0,0.02211425,199.52291,105.73645)"
       x1="43.634144"
       y1="238.53841"
       x2="587.56696"
       y2="238.53841" />
    <linearGradient
       inkscape:collect="always"
       xlink:href="#linearGradient894"
       id="linearGradient2607"
       gradientUnits="userSpaceOnUse"
       gradientTransform="matrix(0.02211425,0,0,0.02211425,199.52291,105.73645)"
       x1="43.634144"
       y1="238.53841"
       x2="587.56696"
       y2="238.53841" />
    <linearGradient
       inkscape:collect="always"
       xlink:href="#linearGradient894"
       id="linearGradient2609"
       gradientUnits="userSpaceOnUse"
       gradientTransform="matrix(0.02211425,0,0,0.02211425,199.52291,105.73645)"
       x1="43.634144"
       y1="238.53841"
       x2="587.56696"
       y2="238.53841" />
    <linearGradient
       inkscape:collect="always"
       xlink:href="#linearGradient894"
       id="linearGradient2611"
       gradientUnits="userSpaceOnUse"
       gradientTransform="matrix(0.02211425,0,0,0.02211425,199.52291,105.73645)"
       x1="43.634144"
       y1="238.53841"
       x2="587.56696"
       y2="238.53841" />
    <linearGradient
       inkscape:collect="always"
       xlink:href="#linearGradient894"
       id="linearGradient2613"
       gradientUnits="userSpaceOnUse"
       gradientTransform="matrix(0.02211425,0,0,0.02211425,199.52291,105.73645)"
       x1="43.634144"
       y1="238.53841"
       x2="587.56696"
       y2="238.53841" />
    <linearGradient
       inkscape:collect="always"
       xlink:href="#linearGradient894"
       id="linearGradient2615"
       gradientUnits="userSpaceOnUse"
       gradientTransform="matrix(0.02211425,0,0,0.02211425,199.52291,105.73645)"
       x1="43.634144"
       y1="238.53841"
       x2="587.56696"
       y2="238.53841" />
    <linearGradient
       inkscape:collect="always"
       xlink:href="#linearGradient894"
       id="linearGradient2617"
       gradientUnits="userSpaceOnUse"
       gradientTransform="matrix(0.02211425,0,0,0.02211425,199.52291,105.73645)"
       x1="43.634144"
       y1="238.53841"
       x2="587.56696"
       y2="238.53841" />
    <linearGradient
       inkscape:collect="always"
       xlink:href="#linearGradient894"
       id="linearGradient2619"
       gradientUnits="userSpaceOnUse"
       gradientTransform="matrix(0.02211425,0,0,0.02211425,199.52291,105.73645)"
       x1="43.634144"
       y1="238.53841"
       x2="587.56696"
       y2="238.53841" />
    <linearGradient
       inkscape:collect="always"
       xlink:href="#linearGradient894"
       id="linearGradient2621"
       gradientUnits="userSpaceOnUse"
       gradientTransform="matrix(0.02211425,0,0,0.02211425,199.52291,105.73645)"
       x1="43.634144"
       y1="238.53841"
       x2="587.56696"
       y2="238.53841" />
    <linearGradient
       inkscape:collect="always"
       xlink:href="#linearGradient894"
       id="linearGradient2623"
       gradientUnits="userSpaceOnUse"
       gradientTransform="matrix(0.02211425,0,0,0.02211425,199.52291,105.73645)"
       x1="43.634144"
       y1="238.53841"
       x2="587.56696"
       y2="238.53841" />
    <linearGradient
       inkscape:collect="always"
       xlink:href="#linearGradient894"
       id="linearGradient2625"
       gradientUnits="userSpaceOnUse"
       gradientTransform="matrix(0.02211425,0,0,0.02211425,199.52291,105.73645)"
       x1="43.634144"
       y1="238.53841"
       x2="587.56696"
       y2="238.53841" />
    <linearGradient
       inkscape:collect="always"
       xlink:href="#linearGradient894"
       id="linearGradient2627"
       gradientUnits="userSpaceOnUse"
       gradientTransform="matrix(0.02211425,0,0,0.02211425,199.52291,105.73645)"
       x1="43.634144"
       y1="238.53841"
       x2="587.56696"
       y2="238.53841" />
    <linearGradient
       inkscape:collect="always"
       xlink:href="#linearGradient894"
       id="linearGradient2629"
       gradientUnits="userSpaceOnUse"
       gradientTransform="matrix(0.02211425,0,0,0.02211425,199.52291,105.73645)"
       x1="43.634144"
       y1="238.53841"
       x2="587.56696"
       y2="238.53841" />
    <linearGradient
       inkscape:collect="always"
       xlink:href="#linearGradient894"
       id="linearGradient2631"
       gradientUnits="userSpaceOnUse"
       gradientTransform="matrix(0.02211425,0,0,0.02211425,199.52291,105.73645)"
       x1="43.634144"
       y1="238.53841"
       x2="587.56696"
       y2="238.53841" />
    <linearGradient
       inkscape:collect="always"
       xlink:href="#linearGradient894"
       id="linearGradient2633"
       gradientUnits="userSpaceOnUse"
       gradientTransform="matrix(0.02211425,0,0,0.02211425,199.52291,105.73645)"
       x1="43.634144"
       y1="238.53841"
       x2="587.56696"
       y2="238.53841" />
    <linearGradient
       inkscape:collect="always"
       xlink:href="#linearGradient894"
       id="linearGradient2635"
       gradientUnits="userSpaceOnUse"
       gradientTransform="matrix(0.02211425,0,0,0.02211425,199.52291,105.73645)"
       x1="43.634144"
       y1="238.53841"
       x2="587.56696"
       y2="238.53841" />
    <linearGradient
       inkscape:collect="always"
       xlink:href="#linearGradient894"
       id="linearGradient2637"
       gradientUnits="userSpaceOnUse"
       gradientTransform="matrix(0.02211425,0,0,0.02211425,199.52291,105.73645)"
       x1="43.634144"
       y1="238.53841"
       x2="587.56696"
       y2="238.53841" />
    <linearGradient
       inkscape:collect="always"
       xlink:href="#linearGradient894"
       id="linearGradient2639"
       gradientUnits="userSpaceOnUse"
       gradientTransform="matrix(0.02211425,0,0,0.02211425,199.52291,105.73645)"
       x1="43.634144"
       y1="238.53841"
       x2="587.56696"
       y2="238.53841" />
    <linearGradient
       inkscape:collect="always"
       xlink:href="#linearGradient894"
       id="linearGradient2641"
       gradientUnits="userSpaceOnUse"
       gradientTransform="matrix(0.02211425,0,0,0.02211425,199.52291,105.73645)"
       x1="43.634144"
       y1="238.53841"
       x2="587.56696"
       y2="238.53841" />
    <linearGradient
       inkscape:collect="always"
       xlink:href="#linearGradient894"
       id="linearGradient2643"
       gradientUnits="userSpaceOnUse"
       gradientTransform="matrix(0.02211425,0,0,0.02211425,199.52291,105.73645)"
       x1="43.634144"
       y1="238.53841"
       x2="587.56696"
       y2="238.53841" />
    <linearGradient
       inkscape:collect="always"
       xlink:href="#linearGradient894"
       id="linearGradient2645"
       gradientUnits="userSpaceOnUse"
       gradientTransform="matrix(0.02211425,0,0,0.02211425,199.52291,105.73645)"
       x1="43.634144"
       y1="238.53841"
       x2="587.56696"
       y2="238.53841" />
    <linearGradient
       inkscape:collect="always"
       xlink:href="#linearGradient894"
       id="linearGradient2647"
       gradientUnits="userSpaceOnUse"
       gradientTransform="matrix(0.02211425,0,0,0.02211425,199.52291,105.73645)"
       x1="43.634144"
       y1="238.53841"
       x2="587.56696"
       y2="238.53841" />
    <linearGradient
       inkscape:collect="always"
       xlink:href="#linearGradient894"
       id="linearGradient2649"
       gradientUnits="userSpaceOnUse"
       gradientTransform="matrix(0.02211425,0,0,0.02211425,199.52291,105.73645)"
       x1="43.634144"
       y1="238.53841"
       x2="587.56696"
       y2="238.53841" />
    <linearGradient
       inkscape:collect="always"
       xlink:href="#linearGradient894"
       id="linearGradient2651"
       gradientUnits="userSpaceOnUse"
       gradientTransform="matrix(0.02211425,0,0,0.02211425,199.52291,105.73645)"
       x1="43.634144"
       y1="238.53841"
       x2="587.56696"
       y2="238.53841" />
    <linearGradient
       inkscape:collect="always"
       xlink:href="#linearGradient894"
       id="linearGradient2653"
       gradientUnits="userSpaceOnUse"
       gradientTransform="matrix(0.02211425,0,0,0.02211425,199.52291,105.73645)"
       x1="43.634144"
       y1="238.53841"
       x2="587.56696"
       y2="238.53841" />
    <linearGradient
       inkscape:collect="always"
       xlink:href="#linearGradient894"
       id="linearGradient2655"
       gradientUnits="userSpaceOnUse"
       gradientTransform="matrix(0.02211425,0,0,0.02211425,199.52291,105.73645)"
       x1="43.634144"
       y1="238.53841"
       x2="587.56696"
       y2="238.53841" />
    <linearGradient
       inkscape:collect="always"
       xlink:href="#linearGradient894"
       id="linearGradient2657"
       gradientUnits="userSpaceOnUse"
       gradientTransform="matrix(0.02211425,0,0,0.02211425,199.52291,105.73645)"
       x1="43.634144"
       y1="238.53841"
       x2="587.56696"
       y2="238.53841" />
    <linearGradient
       inkscape:collect="always"
       xlink:href="#linearGradient894"
       id="linearGradient2659"
       gradientUnits="userSpaceOnUse"
       gradientTransform="matrix(0.02211425,0,0,0.02211425,199.52291,105.73645)"
       x1="43.634144"
       y1="238.53841"
       x2="587.56696"
       y2="238.53841" />
    <linearGradient
       inkscape:collect="always"
       xlink:href="#linearGradient894"
       id="linearGradient2661"
       gradientUnits="userSpaceOnUse"
       gradientTransform="matrix(0.02211425,0,0,0.02211425,199.52291,105.73645)"
       x1="43.634144"
       y1="238.53841"
       x2="587.56696"
       y2="238.53841" />
    <linearGradient
       inkscape:collect="always"
       xlink:href="#linearGradient894"
       id="linearGradient2663"
       gradientUnits="userSpaceOnUse"
       gradientTransform="matrix(0.02211425,0,0,0.02211425,199.52291,105.73645)"
       x1="43.634144"
       y1="238.53841"
       x2="587.56696"
       y2="238.53841" />
    <linearGradient
       inkscape:collect="always"
       xlink:href="#linearGradient894"
       id="linearGradient2665"
       gradientUnits="userSpaceOnUse"
       gradientTransform="matrix(0.02211425,0,0,0.02211425,199.52291,105.73645)"
       x1="43.634144"
       y1="238.53841"
       x2="587.56696"
       y2="238.53841" />
    <linearGradient
       inkscape:collect="always"
       xlink:href="#linearGradient894"
       id="linearGradient2667"
       gradientUnits="userSpaceOnUse"
       gradientTransform="matrix(0.02211425,0,0,0.02211425,199.52291,105.73645)"
       x1="43.634144"
       y1="238.53841"
       x2="587.56696"
       y2="238.53841" />
    <linearGradient
       inkscape:collect="always"
       xlink:href="#linearGradient894"
       id="linearGradient2669"
       gradientUnits="userSpaceOnUse"
       gradientTransform="matrix(0.02211425,0,0,0.02211425,199.52291,105.73645)"
       x1="43.634144"
       y1="238.53841"
       x2="587.56696"
       y2="238.53841" />
    <linearGradient
       inkscape:collect="always"
       xlink:href="#linearGradient894"
       id="linearGradient2671"
       gradientUnits="userSpaceOnUse"
       gradientTransform="matrix(0.02211425,0,0,0.02211425,199.52291,105.73645)"
       x1="43.634144"
       y1="238.53841"
       x2="587.56696"
       y2="238.53841" />
    <linearGradient
       inkscape:collect="always"
       xlink:href="#linearGradient894"
       id="linearGradient2673"
       gradientUnits="userSpaceOnUse"
       gradientTransform="matrix(0.02211425,0,0,0.02211425,199.52291,105.73645)"
       x1="43.634144"
       y1="238.53841"
       x2="587.56696"
       y2="238.53841" />
    <linearGradient
       inkscape:collect="always"
       xlink:href="#linearGradient894"
       id="linearGradient2675"
       gradientUnits="userSpaceOnUse"
       gradientTransform="matrix(0.02211425,0,0,0.02211425,199.52291,105.73645)"
       x1="43.634144"
       y1="238.53841"
       x2="587.56696"
       y2="238.53841" />
    <linearGradient
       inkscape:collect="always"
       xlink:href="#linearGradient894"
       id="linearGradient2677"
       gradientUnits="userSpaceOnUse"
       gradientTransform="matrix(0.02211425,0,0,0.02211425,199.52291,105.73645)"
       x1="43.634144"
       y1="238.53841"
       x2="587.56696"
       y2="238.53841" />
    <linearGradient
       inkscape:collect="always"
       xlink:href="#linearGradient894"
       id="linearGradient2679"
       gradientUnits="userSpaceOnUse"
       gradientTransform="matrix(0.02211425,0,0,0.02211425,199.52291,105.73645)"
       x1="43.634144"
       y1="238.53841"
       x2="587.56696"
       y2="238.53841" />
    <linearGradient
       inkscape:collect="always"
       xlink:href="#linearGradient894"
       id="linearGradient2681"
       gradientUnits="userSpaceOnUse"
       gradientTransform="matrix(0.02211425,0,0,0.02211425,199.52291,105.73645)"
       x1="43.634144"
       y1="238.53841"
       x2="587.56696"
       y2="238.53841" />
    <linearGradient
       inkscape:collect="always"
       xlink:href="#linearGradient894"
       id="linearGradient2683"
       gradientUnits="userSpaceOnUse"
       gradientTransform="matrix(0.02211425,0,0,0.02211425,199.52291,105.73645)"
       x1="43.634144"
       y1="238.53841"
       x2="587.56696"
       y2="238.53841" />
    <linearGradient
       inkscape:collect="always"
       xlink:href="#linearGradient894"
       id="linearGradient2685"
       gradientUnits="userSpaceOnUse"
       gradientTransform="matrix(0.02211425,0,0,0.02211425,199.52291,105.73645)"
       x1="43.634144"
       y1="238.53841"
       x2="587.56696"
       y2="238.53841" />
    <linearGradient
       inkscape:collect="always"
       xlink:href="#linearGradient894"
       id="linearGradient2687"
       gradientUnits="userSpaceOnUse"
       gradientTransform="matrix(0.02211425,0,0,0.02211425,199.52291,105.73645)"
       x1="43.634144"
       y1="238.53841"
       x2="587.56696"
       y2="238.53841" />
    <linearGradient
       inkscape:collect="always"
       xlink:href="#linearGradient894"
       id="linearGradient2689"
       gradientUnits="userSpaceOnUse"
       gradientTransform="matrix(0.02211425,0,0,0.02211425,199.52291,105.73645)"
       x1="43.634144"
       y1="238.53841"
       x2="587.56696"
       y2="238.53841" />
    <linearGradient
       inkscape:collect="always"
       xlink:href="#linearGradient894"
       id="linearGradient2691"
       gradientUnits="userSpaceOnUse"
       gradientTransform="matrix(0.02211425,0,0,0.02211425,199.52291,105.73645)"
       x1="43.634144"
       y1="238.53841"
       x2="587.56696"
       y2="238.53841" />
  </defs>
  <sodipodi:namedview
     id="base"
     pagecolor="#ffffff"
     bordercolor="#666666"
     borderopacity="1.0"
     inkscape:pageopacity="0.0"
     inkscape:pageshadow="2"
     inkscape:zoom="0.35"
     inkscape:cx="482.85743"
     inkscape:cy="-380.29396"
     inkscape:document-units="mm"
     inkscape:current-layer="layer1"
     showgrid="false"
     fit-margin-top="0"
     fit-margin-left="0"
     fit-margin-right="0"
     fit-margin-bottom="0"
     inkscape:window-width="1920"
     inkscape:window-height="1025"
     inkscape:window-x="0"
     inkscape:window-y="27"
     inkscape:window-maximized="1" />
  <metadata
     id="metadata1777">
    <rdf:RDF>
      <cc:Work
         rdf:about="">
        <dc:format>image/svg+xml</dc:format>
        <dc:type
           rdf:resource="http://purl.org/dc/dcmitype/StillImage" />
        <dc:title></dc:title>
      </cc:Work>
    </rdf:RDF>
  </metadata>
  <g
     inkscape:label="Layer 1"
     inkscape:groupmode="layer"
     id="layer1"
     transform="translate(150.4346,-40.80992)">
    <g
       transform="translate(-350.88902,-66.49966)"
       id="g1406">
      <path
         inkscape:connector-curvature="0"
         d="m 203.48121,108.50269 c -0.0762,0 -0.13642,0.0606 -0.13642,0.13536 v 3.56045 c 0,0.0747 0.0602,0.13384 0.13642,0.13384 h 6.04142 c 0.0762,0 0.13797,-0.0591 0.13797,-0.13384 v -3.56045 c 0,-0.0748 -0.0618,-0.13536 -0.13797,-0.13536 h -2.61976 c -0.0135,0.0219 -0.0386,0.0365 -0.0667,0.0365 h -0.71002 c -0.028,0 -0.0516,-0.0147 -0.0651,-0.0365 h -2.57987 z"
         id="rect3225-2"
         stroke-miterlimit="4"
         style="fill:none;fill-rule:evenodd;stroke:url(#linearGradient2605);stroke-width:0.122;stroke-linecap:round;stroke-linejoin:round;stroke-miterlimit:4;stroke-dasharray:none" />
      <rect
         ry="0.059259754"
         rx="0.061306607"
         y="108.80886"
         x="203.65738"
         height="3.3330607"
         width="5.6896939"
         id="rect3318-6"
         stroke-miterlimit="4"
         style="fill:none;fill-rule:evenodd;stroke:url(#linearGradient2607);stroke-width:0.122;stroke-linecap:round;stroke-linejoin:round;stroke-miterlimit:4;stroke-dasharray:none" />
      <path
         inkscape:connector-curvature="0"
         d="m 201.11575,109.59714 c -0.27237,1.46325 -0.45,3.02849 -0.58364,3.71539 -0.20961,1.07741 1.6257,1.98311 2.32156,0.73798 0.52827,-0.94525 1.12836,-2.15034 1.12836,-2.15034 z"
         id="path3206-6"
         stroke-miterlimit="4"
         style="fill:none;fill-rule:evenodd;stroke:url(#linearGradient2609);stroke-width:0.122;stroke-miterlimit:4;stroke-dasharray:none" />
      <path
         inkscape:connector-curvature="0"
         id="path3258-4"
         d="m 209.1809,107.81592 h 1.64453 l -0.12888,-0.20789 c -0.0845,-0.1363 -0.30416,-0.23745 -0.69338,-0.23745 -0.38923,0 -0.60889,0.10115 -0.69339,0.23745 z"
         stroke-miterlimit="4"
         style="fill:none;fill-rule:evenodd;stroke:url(#linearGradient2611);stroke-width:0.122;stroke-miterlimit:4;stroke-dasharray:none" />
      <path
         inkscape:connector-curvature="0"
         d="m 202.11895,107.81592 h 1.64453 l -0.12888,-0.20789 c -0.0845,-0.1363 -0.30416,-0.23745 -0.69338,-0.23745 -0.38923,0 -0.60889,0.10115 -0.69339,0.23745 z"
         id="path3234-9"
         stroke-miterlimit="4"
         style="fill:none;fill-rule:evenodd;stroke:url(#linearGradient2613);stroke-width:0.122;stroke-miterlimit:4;stroke-dasharray:none" />
      <path
         inkscape:connector-curvature="0"
         id="path3229-5"
         d="m 203.97554,108.78293 c -0.0843,-0.5344 -0.12321,-0.8016 -0.16212,-0.99882 -0.0389,-0.19723 -0.3826,-0.29902 -0.8722,-0.29902 -0.4896,0 -0.8333,0.10179 -0.87221,0.29902 -0.0389,0.19722 -0.0778,0.46442 -0.16212,0.99882"
         stroke-miterlimit="4"
         style="fill:none;fill-rule:evenodd;stroke:url(#linearGradient2615);stroke-width:0.122;stroke-miterlimit:4;stroke-dasharray:none" />
      <path
         inkscape:connector-curvature="0"
         id="path2416-0"
         d="m 204.82505,110.0552 c 0,1.01895 -0.84197,1.84497 -1.88059,1.84497 -1.03862,0 -1.88059,-0.82602 -1.88059,-1.84497 0,-1.01895 0.84197,-1.84497 1.88059,-1.84497 1.03862,0 1.88059,0.82602 1.88059,1.84497 z"
         stroke-miterlimit="4"
         style="fill:none;fill-rule:evenodd;stroke:url(#linearGradient2617);stroke-width:0.122;stroke-linecap:round;stroke-linejoin:round;stroke-miterlimit:4;stroke-dasharray:none" />
      <path
         inkscape:connector-curvature="0"
         d="m 211.03749,108.78293 c -0.0843,-0.5344 -0.12321,-0.8016 -0.16212,-0.99882 -0.0389,-0.19723 -0.3826,-0.29902 -0.8722,-0.29902 -0.4896,0 -0.8333,0.10179 -0.87221,0.29902 -0.0389,0.19722 -0.0778,0.46442 -0.16212,0.99882"
         id="path3260-4"
         stroke-miterlimit="4"
         style="fill:none;fill-rule:evenodd;stroke:url(#linearGradient2619);stroke-width:0.122;stroke-miterlimit:4;stroke-dasharray:none" />
      <path
         inkscape:connector-curvature="0"
         d="m 205.94044,111.84928 c 0,0.6465 -0.53421,1.1706 -1.1932,1.1706 -0.65899,0 -1.19321,-0.5241 -1.19321,-1.1706 0,-0.64651 0.53422,-1.17061 1.19321,-1.17061 0.65899,0 1.1932,0.5241 1.1932,1.17061 z"
         id="path3208-8"
         stroke-miterlimit="4"
         style="fill:none;fill-rule:evenodd;stroke:url(#linearGradient2621);stroke-width:0.122;stroke-linecap:round;stroke-linejoin:round;stroke-miterlimit:4;stroke-dasharray:none" />
      <path
         inkscape:connector-curvature="0"
         d="m 205.66808,111.84928 c 0,0.49893 -0.41227,0.9034 -0.92084,0.9034 -0.50857,0 -0.92085,-0.40447 -0.92085,-0.9034 0,-0.49894 0.41228,-0.9034 0.92085,-0.9034 0.50857,0 0.92084,0.40446 0.92084,0.9034 z"
         id="path3212-7"
         stroke-miterlimit="4"
         style="fill:none;fill-opacity:0.51851795;fill-rule:evenodd;stroke:url(#linearGradient2623);stroke-width:0.122;stroke-linecap:round;stroke-linejoin:round;stroke-miterlimit:4;stroke-dasharray:none" />
      <path
         inkscape:connector-curvature="0"
         id="path3210-1"
         d="m 205.55135,111.84928 c 0,0.43569 -0.36001,0.78888 -0.80411,0.78888 -0.4441,0 -0.80412,-0.35319 -0.80412,-0.78888 0,-0.43569 0.36002,-0.78889 0.80412,-0.78889 0.4441,0 0.80411,0.3532 0.80411,0.78889 z"
         stroke-miterlimit="4"
         style="fill:none;fill-opacity:0.51851795;fill-rule:evenodd;stroke:url(#linearGradient2625);stroke-width:0.122;stroke-linecap:round;stroke-linejoin:round;stroke-miterlimit:4;stroke-dasharray:none" />
      <path
         inkscape:connector-curvature="0"
         id="path3223-7"
         d="m 211.88758,109.59714 c 0.27236,1.46325 0.45,3.05394 0.58363,3.71539 0.21738,1.07593 -1.6257,1.98311 -2.32156,0.73798 -0.52827,-0.94525 -1.12835,-2.15034 -1.12835,-2.15034 z"
         stroke-miterlimit="4"
         style="fill:none;fill-rule:evenodd;stroke:url(#linearGradient2627);stroke-width:0.122;stroke-miterlimit:4;stroke-dasharray:none" />
      <path
         inkscape:connector-curvature="0"
         d="m 208.17827,110.0552 c 0,1.01895 0.84197,1.84497 1.88059,1.84497 1.03863,0 1.8806,-0.82602 1.8806,-1.84497 0,-1.01895 -0.84197,-1.84497 -1.8806,-1.84497 -1.03862,0 -1.88059,0.82602 -1.88059,1.84497 z"
         id="path3221-2"
         stroke-miterlimit="4"
         style="fill:none;fill-rule:evenodd;stroke:url(#linearGradient2629);stroke-width:0.122;stroke-linecap:round;stroke-linejoin:round;stroke-miterlimit:4;stroke-dasharray:none" />
      <path
         inkscape:connector-curvature="0"
         id="path3219-7"
         d="m 209.67285,108.69171 c -0.0762,0 -0.13798,0.0606 -0.13798,0.13536 v 0.7133 h -0.72863 c -0.0762,0 -0.13642,0.0606 -0.13642,0.13537 v 0.75893 c 0,0.0748 0.0602,0.13536 0.13642,0.13536 h 0.72863 v 0.71331 c 0,0.0747 0.0618,0.13535 0.13798,0.13536 h 0.77358 c 0.0762,0 0.13642,-0.0606 0.13643,-0.13536 v -0.71331 h 0.72862 c 0.0762,0 0.13643,-0.0606 0.13643,-0.13536 v -0.75893 c 0,-0.0748 -0.0602,-0.13537 -0.13643,-0.13537 h -0.72862 v -0.7133 c 0,-0.0748 -0.0602,-0.13536 -0.13643,-0.13536 z"
         stroke-miterlimit="4"
         style="fill:none;fill-rule:evenodd;stroke:url(#linearGradient2631);stroke-width:0.122;stroke-linecap:round;stroke-linejoin:round;stroke-miterlimit:4;stroke-dasharray:none" />
      <rect
         id="rect3236-2"
         width="0.57714748"
         height="0.32446033"
         x="205.11038"
         y="110.08088"
         rx="0.034689032"
         ry="0.034689032"
         stroke-miterlimit="4"
         style="fill:none;fill-rule:evenodd;stroke:url(#linearGradient2633);stroke-width:0.122;stroke-linecap:round;stroke-linejoin:round;stroke-miterlimit:4;stroke-dasharray:none" />
      <path
         inkscape:connector-curvature="0"
         d="m 207.77564,110.24311 -0.42151,0.16223 c -0.0401,0.0154 -0.0778,-0.034 -0.0778,-0.0763 v -0.17177 c 0,-0.0423 0.0377,-0.0918 0.0778,-0.0763 z"
         id="rect3238-2"
         stroke-miterlimit="4"
         style="fill:none;fill-rule:evenodd;stroke:url(#linearGradient2635);stroke-width:0.122;stroke-linecap:round;stroke-linejoin:round;stroke-miterlimit:4;stroke-dasharray:none" />
      <path
         inkscape:connector-curvature="0"
         id="path3242-6"
         d="m 206.94364,111.10492 c 0,0.21328 -0.17624,0.38618 -0.39363,0.38618 -0.2174,0 -0.39363,-0.1729 -0.39363,-0.38618 0,-0.21327 0.17623,-0.38617 0.39363,-0.38617 0.21739,0 0.39363,0.1729 0.39363,0.38617 z"
         stroke-miterlimit="4"
         style="fill:none;fill-rule:evenodd;stroke:url(#linearGradient2637);stroke-width:0.122;stroke-linecap:round;stroke-linejoin:round;stroke-miterlimit:4;stroke-dasharray:none" />
      <path
         inkscape:connector-curvature="0"
         id="path3244-1"
         d="m 210.46741,109.19633 c 0,0.22136 -0.18291,0.40081 -0.40855,0.40081 -0.22563,0 -0.40854,-0.17945 -0.40854,-0.40081 0,-0.22135 0.18291,-0.4008 0.40854,-0.4008 0.22564,0 0.40855,0.17945 0.40855,0.4008 z"
         stroke-miterlimit="4"
         style="fill:none;fill-rule:evenodd;stroke:url(#linearGradient2639);stroke-width:0.122;stroke-linecap:round;stroke-linejoin:round;stroke-miterlimit:4;stroke-dasharray:none" />
      <path
         inkscape:connector-curvature="0"
         d="m 210.46741,110.92043 c 0,0.22135 -0.18291,0.4008 -0.40855,0.4008 -0.22563,0 -0.40854,-0.17945 -0.40854,-0.4008 0,-0.22136 0.18291,-0.40081 0.40854,-0.40081 0.22564,0 0.40855,0.17945 0.40855,0.40081 z"
         id="path3246-0"
         stroke-miterlimit="4"
         style="fill:none;fill-rule:evenodd;stroke:url(#linearGradient2641);stroke-width:0.122;stroke-linecap:round;stroke-linejoin:round;stroke-miterlimit:4;stroke-dasharray:none" />
      <path
         inkscape:connector-curvature="0"
         d="m 210.52901,110.05838 c 0,-0.22136 0.18291,-0.4008 0.40854,-0.4008 0.22563,0 0.40855,0.17944 0.40855,0.4008 0,0.22136 -0.18292,0.4008 -0.40855,0.4008 -0.22563,0 -0.40854,-0.17944 -0.40854,-0.4008 z"
         id="path3248-6"
         stroke-miterlimit="4"
         style="fill:none;fill-rule:evenodd;stroke:url(#linearGradient2643);stroke-width:0.122;stroke-linecap:round;stroke-linejoin:round;stroke-miterlimit:4;stroke-dasharray:none" />
      <path
         inkscape:connector-curvature="0"
         id="path3250-1"
         d="m 208.77163,110.05838 c 0,-0.22136 0.18291,-0.4008 0.40854,-0.4008 0.22563,0 0.40854,0.17944 0.40854,0.4008 0,0.22136 -0.18291,0.4008 -0.40854,0.4008 -0.22563,0 -0.40854,-0.17944 -0.40854,-0.4008 z"
         stroke-miterlimit="4"
         style="fill:none;fill-rule:evenodd;stroke:url(#linearGradient2645);stroke-width:0.122;stroke-linecap:round;stroke-linejoin:round;stroke-miterlimit:4;stroke-dasharray:none" />
      <path
         inkscape:connector-curvature="0"
         d="m 202.54957,108.66824 c -0.0762,0 -0.13798,0.0606 -0.13798,0.13536 v 0.7133 h -0.72863 c -0.0762,0 -0.13642,0.0606 -0.13642,0.13537 v 0.75893 c 0,0.0748 0.0602,0.13536 0.13642,0.13536 h 0.72863 v 0.71331 c 0,0.0747 0.0618,0.13536 0.13798,0.13536 h 0.77358 c 0.0762,0 0.13643,-0.0606 0.13643,-0.13536 v -0.71331 h 0.72862 c 0.0762,0 0.13643,-0.0606 0.13643,-0.13536 v -0.75893 c 0,-0.0747 -0.0602,-0.13537 -0.13643,-0.13537 h -0.72862 v -0.7133 c 0,-0.0748 -0.0602,-0.13536 -0.13643,-0.13536 z"
         id="rect3214-5"
         stroke-miterlimit="4"
         style="fill:none;fill-rule:evenodd;stroke:url(#linearGradient2647);stroke-width:0.122;stroke-linecap:round;stroke-linejoin:round;stroke-miterlimit:4;stroke-dasharray:none" />
      <path
         inkscape:connector-curvature="0"
         id="path3289-9"
         d="m 209.4163,111.84928 c 0,0.6465 -0.53422,1.1706 -1.19321,1.1706 -0.65899,0 -1.1932,-0.5241 -1.1932,-1.1706 0,-0.64651 0.53421,-1.17061 1.1932,-1.17061 0.65899,0 1.19321,0.5241 1.19321,1.17061 z"
         stroke-miterlimit="4"
         style="fill:none;fill-rule:evenodd;stroke:url(#linearGradient2649);stroke-width:0.122;stroke-linecap:round;stroke-linejoin:round;stroke-miterlimit:4;stroke-dasharray:none" />
      <path
         inkscape:connector-curvature="0"
         id="path3291-4"
         d="m 209.14393,111.84928 c 0,0.49893 -0.41227,0.9034 -0.92084,0.9034 -0.50857,0 -0.92084,-0.40447 -0.92084,-0.9034 0,-0.49894 0.41227,-0.9034 0.92084,-0.9034 0.50857,0 0.92084,0.40446 0.92084,0.9034 z"
         stroke-miterlimit="4"
         style="fill:none;fill-opacity:0.51851795;fill-rule:evenodd;stroke:url(#linearGradient2651);stroke-width:0.122;stroke-linecap:round;stroke-linejoin:round;stroke-miterlimit:4;stroke-dasharray:none" />
      <path
         inkscape:connector-curvature="0"
         d="m 209.02721,111.84928 c 0,0.43569 -0.36002,0.78888 -0.80412,0.78888 -0.4441,0 -0.80411,-0.35319 -0.80411,-0.78888 0,-0.43569 0.36001,-0.78889 0.80411,-0.78889 0.4441,0 0.80412,0.3532 0.80412,0.78889 z"
         id="path3293-9"
         stroke-miterlimit="4"
         style="fill:none;fill-opacity:0.51851795;fill-rule:evenodd;stroke:url(#linearGradient2653);stroke-width:0.122;stroke-linecap:round;stroke-linejoin:round;stroke-miterlimit:4;stroke-dasharray:none" />
      <path
         style="fill:none;fill-rule:evenodd;stroke:url(#linearGradient2655);stroke-width:0.122;stroke-linecap:round;stroke-linejoin:round;stroke-miterlimit:4;stroke-dasharray:none"
         stroke-miterlimit="4"
         d="m 202.93558,108.81185 -0.18769,0.1749 h 0.37539 z"
         id="path3273-9"
         inkscape:connector-curvature="0" />
      <path
         style="fill:none;fill-rule:evenodd;stroke:url(#linearGradient2657);stroke-width:0.122;stroke-linecap:round;stroke-linejoin:round;stroke-miterlimit:4;stroke-dasharray:none"
         stroke-miterlimit="4"
         id="path3295-1"
         d="m 202.93558,111.25161 -0.18769,-0.1749 h 0.37539 z"
         inkscape:connector-curvature="0" />
      <path
         style="fill:none;fill-rule:evenodd;stroke:url(#linearGradient2659);stroke-width:0.122;stroke-linecap:round;stroke-linejoin:round;stroke-miterlimit:4;stroke-dasharray:none"
         stroke-miterlimit="4"
         id="path3303-7"
         d="m 204.17902,110.03173 -0.17828,-0.18413 v 0.36827 z"
         inkscape:connector-curvature="0" />
      <path
         style="fill:none;fill-rule:evenodd;stroke:url(#linearGradient2661);stroke-width:0.122;stroke-linecap:round;stroke-linejoin:round;stroke-miterlimit:4;stroke-dasharray:none"
         stroke-miterlimit="4"
         d="m 201.69215,110.03173 0.17827,-0.18413 v 0.36827 z"
         id="path3305-7"
         inkscape:connector-curvature="0" />
      <rect
         id="rect3307-1"
         width="0.46771571"
         height="0.45885623"
         x="208.94632"
         y="109.82895"
         stroke-miterlimit="4"
         style="fill:none;fill-rule:evenodd;stroke:url(#linearGradient2663);stroke-width:0.122;stroke-miterlimit:4;stroke-dasharray:none" />
      <path
         inkscape:connector-curvature="0"
         id="path3309-1"
         d="m 210.31925,109.35871 h -0.52077 l 0.26038,-0.44172 z"
         stroke-miterlimit="4"
         style="fill:none;fill-rule:evenodd;stroke:url(#linearGradient2665);stroke-width:0.122;stroke-miterlimit:4;stroke-dasharray:none" />
      <path
         inkscape:connector-curvature="0"
         id="path3311-5"
         d="m 210.65741,110.05838 c 0,-0.15179 0.12542,-0.27484 0.28014,-0.27484 0.15473,0 0.28016,0.12305 0.28016,0.27484 0,0.15179 -0.12543,0.27484 -0.28016,0.27484 -0.15472,0 -0.28014,-0.12305 -0.28014,-0.27484 z"
         stroke-miterlimit="4"
         style="fill:none;fill-rule:evenodd;stroke:url(#linearGradient2667);stroke-width:0.122;stroke-linecap:round;stroke-linejoin:round;stroke-miterlimit:4;stroke-dasharray:none" />
      <path
         inkscape:connector-curvature="0"
         id="path3313-9"
         d="m 209.85158,110.72111 0.42186,0.41387 m 0,-0.41387 -0.42186,0.41387"
         stroke-miterlimit="4"
         style="fill:none;fill-opacity:0.75;fill-rule:evenodd;stroke:url(#linearGradient2669);stroke-width:0.122;stroke-miterlimit:4;stroke-dasharray:none" />
      <path
         style="fill:none;fill-rule:evenodd;stroke:url(#linearGradient2671);stroke-width:0.122;stroke-linecap:round;stroke-linejoin:round;stroke-miterlimit:4;stroke-dasharray:none"
         stroke-miterlimit="4"
         id="path3322-7"
         d="m 203.39793,109.75865 c -0.0166,10e-4 -0.0319,0.01 -0.0419,0.0228 l -0.17363,0.21597 c -0.0162,0.0206 -0.0162,0.0493 0,0.07 l 0.17363,0.21749 c 0.011,0.0143 0.0282,0.0228 0.0465,0.0228 l 0.40307,0.002 c 0.0157,1.1e-4 0.0307,-0.006 0.0418,-0.0168 0.0111,-0.0109 0.0172,-0.0256 0.0171,-0.041 v -0.42737 c 2.4e-4,-0.0314 -0.0253,-0.0572 -0.0574,-0.0578 l -0.40307,-0.008 c -0.002,-1.1e-4 -0.004,-1.1e-4 -0.006,0 z"
         inkscape:connector-curvature="0" />
      <path
         style="fill:none;fill-rule:evenodd;stroke:url(#linearGradient2673);stroke-width:0.122;stroke-linecap:round;stroke-linejoin:round;stroke-miterlimit:4;stroke-dasharray:none"
         stroke-miterlimit="4"
         d="m 202.47324,109.75432 c 0.0166,10e-4 0.0319,0.01 0.0419,0.0228 l 0.17363,0.21597 c 0.0162,0.0206 0.0162,0.0493 0,0.07 l -0.17363,0.21749 c -0.011,0.0143 -0.0282,0.0228 -0.0465,0.0228 l -0.40307,0.002 c -0.0157,1.1e-4 -0.0307,-0.006 -0.0418,-0.0168 -0.0111,-0.0109 -0.0172,-0.0256 -0.0171,-0.041 v -0.42738 c -2.4e-4,-0.0314 0.0253,-0.0572 0.0574,-0.0578 l 0.40307,-0.008 c 0.002,-1.2e-4 0.004,-1.2e-4 0.006,0 z"
         id="path3324-6"
         inkscape:connector-curvature="0" />
      <path
         style="fill:none;fill-rule:evenodd;stroke:url(#linearGradient2675);stroke-width:0.122;stroke-linecap:round;stroke-linejoin:round;stroke-miterlimit:4;stroke-dasharray:none"
         stroke-miterlimit="4"
         d="m 203.21394,110.48532 c -0.001,-0.0163 -0.01,-0.0313 -0.0233,-0.0411 l -0.22014,-0.17034 c -0.021,-0.0159 -0.0503,-0.0159 -0.0713,0 l -0.22169,0.17034 c -0.0146,0.0108 -0.0232,0.0277 -0.0233,0.0456 l -0.002,0.39544 c -1.1e-4,0.0154 0.006,0.0301 0.0171,0.041 0.0111,0.0109 0.0261,0.0169 0.0418,0.0168 h 0.43563 c 0.032,2.3e-4 0.0583,-0.0249 0.0589,-0.0563 l 0.008,-0.39544 c 1.1e-4,-0.002 1.1e-4,-0.004 0,-0.006 z"
         id="path3332-7"
         inkscape:connector-curvature="0" />
      <path
         style="fill:none;fill-rule:evenodd;stroke:url(#linearGradient2677);stroke-width:0.122;stroke-linecap:round;stroke-linejoin:round;stroke-miterlimit:4;stroke-dasharray:none"
         stroke-miterlimit="4"
         id="path3334-3"
         d="m 203.21835,109.57815 c -10e-4,0.0163 -0.01,0.0313 -0.0233,0.0411 l -0.22013,0.17034 c -0.021,0.0159 -0.0503,0.0159 -0.0713,0 l -0.22169,-0.17034 c -0.0146,-0.0108 -0.0232,-0.0277 -0.0232,-0.0456 l -0.002,-0.39543 c -1.1e-4,-0.0154 0.006,-0.0301 0.0171,-0.041 0.0111,-0.0109 0.0261,-0.0169 0.0418,-0.0168 h 0.43563 c 0.032,-2.3e-4 0.0583,0.0249 0.0589,0.0563 l 0.008,0.39543 c 1.1e-4,0.002 1.1e-4,0.004 0,0.006 z"
         inkscape:connector-curvature="0" />
      <path
         inkscape:connector-curvature="0"
         d="m 202.82845,107.70336 h 0.0515 v 0.33088 h 0.18533 v 0.0425 h -0.23682 v -0.37339"
         id="text3336-6"
         style="fill:none;stroke:url(#linearGradient2679);stroke-width:0.122;stroke-miterlimit:4;stroke-dasharray:none" />
      <path
         inkscape:connector-curvature="0"
         d="m 210.09888,107.90169 c 0.011,0.004 0.0217,0.0115 0.0321,0.0235 0.0105,0.012 0.0211,0.0285 0.0316,0.0495 l 0.0523,0.10203 h -0.0553 l -0.0487,-0.0958 c -0.0126,-0.025 -0.0248,-0.0416 -0.0367,-0.0498 -0.0117,-0.008 -0.0278,-0.0123 -0.0482,-0.0123 h -0.0561 v 0.15781 h -0.0515 v -0.37339 h 0.11625 c 0.0435,0 0.076,0.009 0.0974,0.0268 0.0214,0.0178 0.0321,0.0448 0.0321,0.0808 0,0.0235 -0.006,0.043 -0.0168,0.0585 -0.0111,0.0155 -0.0272,0.0263 -0.0484,0.0323 m -0.12899,-0.15681 v 0.13255 h 0.0648 c 0.0248,0 0.0435,-0.006 0.0561,-0.0168 0.0127,-0.0113 0.0191,-0.0279 0.0191,-0.0498 0,-0.0218 -0.006,-0.0383 -0.0191,-0.0493 -0.0126,-0.0112 -0.0313,-0.0168 -0.0561,-0.0168 h -0.0648"
         id="text3340-5"
         style="fill:none;stroke:url(#linearGradient2681);stroke-width:0.122;stroke-miterlimit:4;stroke-dasharray:none" />
      <path
         inkscape:connector-curvature="0"
         d="m 205.11847,109.80266 v 0.0214 c -0.008,-0.004 -0.0165,-0.007 -0.024,-0.009 -0.008,-0.002 -0.0148,-0.003 -0.0218,-0.003 -0.0122,0 -0.0216,0.002 -0.0282,0.007 -0.007,0.005 -0.01,0.0112 -0.01,0.0197 0,0.007 0.002,0.0126 0.007,0.0163 0.004,0.004 0.0128,0.007 0.025,0.009 l 0.0135,0.003 c 0.0167,0.003 0.0289,0.009 0.0368,0.0165 0.008,0.008 0.012,0.0183 0.012,0.0315 0,0.0157 -0.005,0.0276 -0.0162,0.0357 -0.0107,0.008 -0.0264,0.0121 -0.0471,0.0121 -0.008,0 -0.0161,-8.7e-4 -0.025,-0.003 -0.009,-0.002 -0.0179,-0.004 -0.0273,-0.008 v -0.0226 c 0.009,0.005 0.018,0.009 0.0267,0.0113 0.009,0.003 0.0172,0.004 0.0257,0.004 0.0128,0 0.0226,-0.002 0.0295,-0.007 0.007,-0.005 0.0104,-0.0119 0.0104,-0.021 0,-0.008 -0.002,-0.0142 -0.008,-0.0187 -0.005,-0.004 -0.0131,-0.008 -0.0244,-0.0101 l -0.0136,-0.003 c -0.0167,-0.003 -0.0287,-0.008 -0.0362,-0.0153 -0.007,-0.007 -0.0112,-0.0166 -0.0112,-0.029 0,-0.0143 0.005,-0.0256 0.0154,-0.0339 0.0103,-0.008 0.0245,-0.0124 0.0426,-0.0124 0.008,0 0.0156,6.9e-4 0.0237,0.002 0.008,0.001 0.0163,0.003 0.0247,0.006 m 0.0448,-0.005 h 0.1044 v 0.0184 h -0.0821 v 0.048 h 0.0786 v 0.0184 h -0.0786 v 0.0587 h 0.0841 v 0.0184 h -0.10639 v -0.16198 m 0.14333,0 h 0.0223 v 0.14354 h 0.0804 v 0.0184 h -0.10274 v -0.16198 m 0.12608,0 h 0.10439 v 0.0184 h -0.0821 v 0.048 h 0.0786 v 0.0184 h -0.0786 v 0.0587 h 0.084 v 0.0184 h -0.10638 v -0.16198 m 0.26696,0.0125 v 0.0231 c -0.008,-0.007 -0.0156,-0.012 -0.0241,-0.0154 -0.008,-0.003 -0.0175,-0.005 -0.0271,-0.005 -0.0189,0 -0.0333,0.006 -0.0434,0.017 -0.01,0.0113 -0.015,0.0276 -0.015,0.049 0,0.0213 0.005,0.0377 0.015,0.049 0.01,0.0113 0.0245,0.0169 0.0434,0.0169 0.01,0 0.0186,-0.002 0.0271,-0.005 0.009,-0.003 0.0166,-0.009 0.0241,-0.0154 v 0.0229 c -0.008,0.005 -0.0161,0.009 -0.0249,0.0117 -0.009,0.003 -0.0179,0.004 -0.0276,0.004 -0.025,0 -0.0447,-0.007 -0.059,-0.0225 -0.0144,-0.015 -0.0216,-0.0356 -0.0216,-0.0615 0,-0.026 0.007,-0.0465 0.0216,-0.0615 0.0144,-0.0151 0.0341,-0.0226 0.059,-0.0226 0.01,0 0.0192,10e-4 0.0279,0.004 0.009,0.003 0.017,0.006 0.0247,0.0115 m 0.0118,-0.0125 h 0.13967 v 0.0184 h -0.0586 v 0.14354 h -0.0224 v -0.14354 h -0.0586 v -0.0184"
         id="text2434-6"
         style="fill:none;stroke:url(#linearGradient2683);stroke-width:0.122;stroke-miterlimit:4;stroke-dasharray:none" />
      <path
         inkscape:connector-curvature="0"
         d="m 207.24579,109.80266 v 0.0214 c -0.008,-0.004 -0.0165,-0.007 -0.024,-0.009 -0.008,-0.002 -0.0148,-0.003 -0.0218,-0.003 -0.0122,0 -0.0216,0.002 -0.0282,0.007 -0.007,0.005 -0.01,0.0112 -0.01,0.0197 0,0.007 0.002,0.0126 0.007,0.0163 0.004,0.004 0.0128,0.007 0.025,0.009 l 0.0135,0.003 c 0.0167,0.003 0.0289,0.009 0.0368,0.0165 0.008,0.008 0.0119,0.0183 0.0119,0.0315 0,0.0157 -0.005,0.0276 -0.0162,0.0357 -0.0107,0.008 -0.0264,0.0121 -0.0471,0.0121 -0.008,0 -0.0161,-8.7e-4 -0.025,-0.003 -0.009,-0.002 -0.0179,-0.004 -0.0273,-0.008 v -0.0226 c 0.009,0.005 0.0179,0.009 0.0266,0.0113 0.009,0.003 0.0173,0.004 0.0257,0.004 0.0128,0 0.0226,-0.002 0.0295,-0.007 0.007,-0.005 0.0104,-0.0119 0.0104,-0.021 0,-0.008 -0.003,-0.0142 -0.008,-0.0187 -0.005,-0.004 -0.0131,-0.008 -0.0244,-0.0101 l -0.0136,-0.003 c -0.0167,-0.003 -0.0287,-0.008 -0.0362,-0.0153 -0.007,-0.007 -0.0112,-0.0166 -0.0112,-0.029 0,-0.0143 0.005,-0.0256 0.0154,-0.0339 0.0103,-0.008 0.0245,-0.0124 0.0426,-0.0124 0.008,0 0.0156,6.9e-4 0.0237,0.002 0.008,0.001 0.0163,0.003 0.0247,0.006 m 0.0219,-0.005 h 0.13968 v 0.0184 h -0.0586 v 0.14354 h -0.0224 v -0.14354 h -0.0586 v -0.0184 m 0.19885,0.0216 -0.0303,0.0806 h 0.0607 l -0.0304,-0.0806 m -0.0126,-0.0216 h 0.0253 l 0.0629,0.16198 h -0.0232 l -0.015,-0.0416 h -0.0744 l -0.015,0.0416 h -0.0236 l 0.063,-0.16198 m 0.19055,0.086 c 0.005,0.002 0.009,0.005 0.0139,0.0102 0.005,0.005 0.009,0.0124 0.0137,0.0215 l 0.0227,0.0443 h -0.024 l -0.0211,-0.0416 c -0.005,-0.0109 -0.0108,-0.0181 -0.0159,-0.0216 -0.005,-0.004 -0.012,-0.005 -0.0209,-0.005 h -0.0243 v 0.0685 h -0.0223 v -0.16198 h 0.0504 c 0.0189,0 0.033,0.004 0.0422,0.0116 0.009,0.008 0.0139,0.0194 0.0139,0.035 0,0.0102 -0.002,0.0187 -0.007,0.0254 -0.005,0.007 -0.0118,0.0114 -0.021,0.014 m -0.056,-0.068 v 0.0575 h 0.0281 c 0.0108,0 0.0189,-0.002 0.0243,-0.007 0.006,-0.005 0.008,-0.0121 0.008,-0.0216 0,-0.009 -0.003,-0.0166 -0.008,-0.0214 -0.005,-0.005 -0.0136,-0.007 -0.0243,-0.007 h -0.0281 m 0.0959,-0.018 h 0.13968 v 0.0184 h -0.0586 v 0.14354 h -0.0224 v -0.14354 h -0.0586 v -0.0184"
         id="text2438-3"
         style="fill:none;stroke:url(#linearGradient2685);stroke-width:0.122;stroke-miterlimit:4;stroke-dasharray:none" />
      <rect
         id="rect3383-9"
         width="0.10334706"
         height="0.13143076"
         x="204.61314"
         y="108.52586"
         ry="0.034689032"
         stroke-miterlimit="4"
         style="fill:none;stroke:url(#linearGradient2687);stroke-width:0.122;stroke-miterlimit:4;stroke-dasharray:none" />
      <rect
         ry="0.034689032"
         y="108.52586"
         x="204.93849"
         height="0.13143076"
         width="0.10334706"
         id="rect3385-4"
         stroke-miterlimit="4"
         style="fill:none;stroke:url(#linearGradient2689);stroke-width:0.122;stroke-miterlimit:4;stroke-dasharray:none" />
      <rect
         id="rect3387-8"
         width="0.10334706"
         height="0.13143076"
         x="205.22939"
         y="108.52586"
         ry="0.034689032"
         stroke-miterlimit="4"
         style="fill:none;stroke:url(#linearGradient2691);stroke-width:0.122;stroke-miterlimit:4;stroke-dasharray:none" />
      <rect
         ry="0.034689032"
         y="108.52586"
         x="205.48203"
         height="0.13143076"
         width="0.10334706"
         id="rect3389-1"
         stroke-miterlimit="4"
         style="fill:none;stroke:url(#linearGradient2110);stroke-width:0.122;stroke-miterlimit:4;stroke-dasharray:none" />
    </g>
  </g>
</svg>
