<?xml version="1.0" encoding="UTF-8" standalone="no"?>
<!-- Created with Inkscape (http://www.inkscape.org/) -->

<svg
   xmlns:dc="http://purl.org/dc/elements/1.1/"
   xmlns:cc="http://creativecommons.org/ns#"
   xmlns:rdf="http://www.w3.org/1999/02/22-rdf-syntax-ns#"
   xmlns:svg="http://www.w3.org/2000/svg"
   xmlns="http://www.w3.org/2000/svg"
   xmlns:xlink="http://www.w3.org/1999/xlink"
   xmlns:sodipodi="http://sodipodi.sourceforge.net/DTD/sodipodi-0.dtd"
   xmlns:inkscape="http://www.inkscape.org/namespaces/inkscape"
   width="47.573978mm"
   height="47.573978mm"
   viewBox="0 0 47.573978 47.573978"
   version="1.1"
   id="svg8"
   inkscape:version="0.92.3 (unknown)"
   sodipodi:docname="logo.svg">
  <defs
     id="defs2">
    <linearGradient
       inkscape:collect="always"
       id="linearGradient894">
      <stop
         style="stop-color:#02a6fc;stop-opacity:1"
         offset="0"
         id="stop890" />
      <stop
         style="stop-color:#1dffc4;stop-opacity:0.99215686"
         offset="1"
         id="stop892" />
    </linearGradient>
    <linearGradient
       inkscape:collect="always"
       xlink:href="#linearGradient894"
       id="linearGradient896"
       x1="27.127857"
       y1="58.595581"
       x2="69.890984"
       y2="23.716908"
       gradientUnits="userSpaceOnUse" />
  </defs>
  <sodipodi:namedview
     id="base"
     pagecolor="#ffffff"
     bordercolor="#666666"
     borderopacity="1.0"
     inkscape:pageopacity="0.0"
     inkscape:pageshadow="2"
     inkscape:zoom="1.4"
     inkscape:cx="107.31126"
     inkscape:cy="149.25808"
     inkscape:document-units="mm"
     inkscape:current-layer="layer1"
     showgrid="false"
     fit-margin-top="0"
     fit-margin-left="0"
     fit-margin-right="0"
     fit-margin-bottom="0"
     inkscape:window-width="1920"
     inkscape:window-height="1025"
     inkscape:window-x="0"
     inkscape:window-y="27"
     inkscape:window-maximized="1" />
  <metadata
     id="metadata5">
    <rdf:RDF>
      <cc:Work
         rdf:about="">
        <dc:format>image/svg+xml</dc:format>
        <dc:type
           rdf:resource="http://purl.org/dc/dcmitype/StillImage" />
        <dc:title></dc:title>
      </cc:Work>
    </rdf:RDF>
  </metadata>
  <g
     inkscape:label="Layer 1"
     inkscape:groupmode="layer"
     id="layer1"
     transform="translate(-22.717911,-14.22884)">
    <rect
       style="opacity:1;fill:url(#linearGradient896);fill-opacity:1;stroke:none;stroke-width:0.69999999;stroke-linecap:round;stroke-miterlimit:4;stroke-dasharray:none;stroke-dashoffset:0;stroke-opacity:1"
       id="rect847"
       width="47.573978"
       height="47.573978"
       x="22.717911"
       y="14.22884"
       ry="4.7124238" />
    <path
       inkscape:connector-curvature="0"
       id="path4290-5-9-1-0-5"
       d="m 46.151844,53.23457 c -0.07264,-0.01891 -0.203905,-0.07168 -0.291704,-0.11763 -0.240397,-0.125759 -7.773698,-5.477962 -8.136834,-5.780984 -0.457256,-0.381564 -1.228231,-1.190865 -1.570143,-1.648177 -1.041343,-1.392852 -1.640727,-2.85894 -1.899496,-4.646309 -0.08551,-0.59072 -0.07146,-2.545137 0.02258,-3.146157 0.444924,-2.841498 1.653907,-5.203726 3.657657,-7.146657 1.938556,-1.879684 4.162156,-2.970558 6.964538,-3.416695 0.129964,-0.0206 0.170745,-0.05303 0.241413,-0.191544 0.262777,-0.515112 0.85821,-0.871305 1.456549,-0.871305 0.598339,0 1.193743,0.356193 1.456549,0.871305 0.06677,0.130867 0.11413,0.171365 0.220585,0.188525 2.059573,0.332006 3.692172,0.956592 5.251449,2.009111 3.022149,2.039931 5.062446,5.39702 5.410369,8.902164 l 0.05055,0.509354 0.196568,0.175796 c 1.154148,1.032341 0.469025,2.897407 -1.064062,2.896616 -0.18336,-8.4e-5 -0.380238,-0.01834 -0.437529,-0.04061 -0.09339,-0.03627 -0.225157,0.03881 -1.270988,0.723702 -0.641717,0.420257 -1.269915,0.803825 -1.395956,0.852368 -0.324612,0.124939 -0.81153,0.09974 -1.135521,-0.05879 -0.280783,-0.137358 -0.545168,-0.415262 -0.684417,-0.719413 -0.128834,-0.28146 -0.137865,-0.516862 -0.06006,-1.565091 0.07561,-1.018484 0.04397,-2.15313 -0.07549,-2.708713 -0.280952,-1.306294 -0.851465,-2.347609 -1.812911,-3.309055 -1.300282,-1.300283 -2.835882,-1.941576 -4.649159,-1.941576 -0.855218,0 -1.645045,0.141647 -2.348823,0.421217 -2.144832,0.852 -3.610073,2.575447 -4.118073,4.843695 -0.08492,0.379165 -0.09598,0.535601 -0.09367,1.325823 0.0028,0.76296 0.01609,0.9571 0.09404,1.308213 0.261395,1.178362 0.788755,2.255746 1.467895,2.998837 0.126576,0.138514 1.051249,0.875961 2.161963,1.724236 1.067392,0.815199 1.962517,1.498995 1.98913,1.519541 0.0366,0.02822 0.04324,-0.450652 0.02738,-1.973382 l -0.02117,-2.010692 -0.278327,-0.08825 c -0.979876,-0.31067 -1.775348,-1.009481 -2.211211,-1.942564 -0.268986,-0.57579 -0.313775,-0.79804 -0.313775,-1.556794 0,-0.774531 0.04614,-0.99472 0.333248,-1.589871 0.885952,-1.836617 3.080907,-2.595541 4.922096,-1.7018 0.980327,0.475827 1.659918,1.306746 1.958961,2.395136 0.08707,0.316907 0.120989,1.183329 0.0591,1.510312 -0.272767,1.441817 -1.256058,2.523518 -2.649502,2.914734 l -0.333361,0.09358 v 2.189367 2.189367 l -0.110885,0.236474 c -0.147912,0.315581 -0.395703,0.575988 -0.68961,0.724747 -0.216436,0.109559 -0.282053,0.122146 -0.637173,0.122146 -0.315778,0 -0.433803,-0.01778 -0.583381,-0.08791 -0.260999,-0.122399 -4.119457,-3.082515 -4.493768,-3.447513 -1.379982,-1.345608 -2.213497,-3.436846 -2.214908,-5.55704 -0.0028,-1.88008 0.66452,-3.704929 1.882253,-5.158909 2.651082,-3.165461 7.256497,-3.830828 10.681179,-1.543191 2.01501,1.346002 3.318143,3.516545 3.565906,5.939451 0.0515,0.50402 0.02845,1.92563 -0.04338,2.665842 -0.02117,0.217142 -0.03308,0.399966 -0.02681,0.406316 0.0062,0.0062 0.441255,-0.271893 0.966498,-0.618264 l 0.954956,-0.629751 v -0.484942 c 0,-0.452149 0.0082,-0.50103 0.120452,-0.722743 0.137301,-0.270962 0.422007,-0.575141 0.681708,-0.728275 0.208139,-0.122738 0.209917,-0.135438 0.111393,-0.799592 -0.26622,-1.794679 -1.11633,-3.704082 -2.302623,-5.171919 -1.667425,-2.063129 -4.1829,-3.520666 -6.766164,-3.92049 l -0.321056,-0.04973 -0.213502,0.233596 c -0.141308,0.154629 -0.307198,0.279738 -0.490643,0.370049 -0.259955,0.12796 -0.304348,0.136427 -0.716421,0.136427 -0.412073,0 -0.456494,-0.0085 -0.716449,-0.136427 C 45.69703,29.313832 45.530547,29.18847 45.39065,29.035393 L 45.178588,28.80335 44.960261,28.8318 c -0.687465,0.08952 -1.651056,0.35481 -2.444016,0.672902 -2.073261,0.831625 -3.857752,2.295229 -5.098683,4.181884 -0.372336,0.56611 -0.938276,1.718536 -1.15618,2.354411 -0.22479,0.655997 -0.396437,1.363924 -0.505206,2.083534 -0.113735,0.752715 -0.123839,1.973693 -0.02229,2.713397 0.29876,2.179687 1.374168,4.095101 3.056777,5.444546 0.24621,0.197471 7.433309,5.30654 7.661034,5.445986 0.07648,0.04682 0.786413,-0.441537 7.562652,-5.202569 4.113022,-2.889814 7.577413,-5.351498 7.698627,-5.47037 0.12779,-0.125363 0.27686,-0.330905 0.35481,-0.48926 0.128891,-0.261761 0.134451,-0.293822 0.134451,-0.774023 v -0.500916 l -0.173623,-0.354189 c -0.0955,-0.194818 -0.356052,-0.598 -0.579007,-0.895942 -0.222984,-0.297942 -0.432986,-0.607286 -0.46674,-0.687437 -0.08989,-0.213614 -0.0484,-0.509101 0.175514,-1.250273 0.312279,-1.033582 0.302684,-1.546013 -0.03869,-2.066826 -0.195326,-0.297999 -0.530183,-0.584398 -1.229388,-1.051362 -0.777748,-0.51943 -0.779526,-0.522507 -0.837664,-1.447518 -0.05173,-0.823299 -0.131375,-1.248325 -0.295317,-1.576522 -0.258798,-0.518047 -0.7193,-0.815678 -1.590407,-1.028022 -1.161712,-0.283126 -1.200969,-0.299466 -1.383651,-0.575536 -0.06003,-0.09073 -0.21844,-0.418987 -0.352016,-0.72946 -0.133547,-0.310472 -0.309739,-0.674652 -0.391499,-0.809272 -0.285919,-0.470662 -0.727738,-0.787118 -1.232549,-0.882876 -0.306352,-0.05805 -0.582817,-0.05269 -1.155897,0.02258 -0.718764,0.09452 -0.999349,0.09167 -1.200178,-0.01214 -0.09167,-0.04738 -0.412045,-0.339485 -0.711906,-0.649167 -0.778623,-0.804079 -1.190611,-1.045916 -1.77577,-1.042303 -0.402026,0.0028 -0.590663,0.06406 -1.428976,0.466485 -0.705358,0.338582 -0.765753,0.359862 -1.021362,0.359862 -0.25606,0 -0.314763,-0.02088 -1.021362,-0.36195 -0.84726,-0.409082 -1.005304,-0.460926 -1.416389,-0.464454 -0.600343,-0.0048 -0.981625,0.219005 -1.798602,1.057402 -0.317161,0.325459 -0.636976,0.617587 -0.710748,0.649168 -0.178562,0.07648 -0.48452,0.07332 -1.269436,-0.01298 -0.755989,-0.08323 -1.118108,-0.05331 -1.506079,0.12429 -0.494284,0.226286 -0.801906,0.629695 -1.198174,1.571385 -0.271046,0.64406 -0.389128,0.827561 -0.611547,0.950327 -0.09573,0.05283 -0.501904,0.178732 -0.902575,0.279767 -0.82948,0.209183 -1.202436,0.371913 -1.486775,0.648801 -0.397341,0.386983 -0.521885,0.77676 -0.600964,1.880983 -0.03833,0.535065 -0.08007,0.862414 -0.119493,0.937598 -0.09669,0.184235 -0.342618,0.392741 -0.90091,0.763863 -0.837297,0.55657 -1.140742,0.8936 -1.274685,1.415739 -0.09985,0.389326 -0.0589,0.763976 0.175119,1.602938 0.213332,0.764794 0.245703,1.07998 0.132645,1.291816 -0.03666,0.06878 -0.246013,0.364151 -0.465131,0.65642 -0.651256,0.868567 -0.841135,1.380716 -0.739676,1.995001 0.04496,0.272401 0.142184,0.548442 0.243981,0.692827 0.02913,0.04135 0.07815,0.03818 0.235232,-0.01524 0.313775,-0.106906 0.860016,-0.06607 1.175004,0.0878 0.316089,0.154432 0.635339,0.474247 0.790674,0.792085 0.111421,0.228008 0.122202,0.288601 0.122428,0.687578 2.54e-4,0.405384 -0.0096,0.458075 -0.131995,0.716788 -0.168289,0.355233 -0.441706,0.62865 -0.796967,0.796939 -0.25575,0.121158 -0.314255,0.132278 -0.695932,0.132278 -0.381678,0 -0.440182,-0.01101 -0.695932,-0.132278 -0.355233,-0.168289 -0.62865,-0.441706 -0.796939,-0.796939 -0.115429,-0.243614 -0.133294,-0.32797 -0.140236,-0.661218 l -0.0079,-0.382016 -0.190162,-0.25829 c -0.4202,-0.570794 -0.605762,-1.170996 -0.606241,-1.960936 0,-0.611096 0.09212,-0.997543 0.373126,-1.558911 0.114723,-0.229193 0.358986,-0.616938 0.542769,-0.861653 0.308385,-0.410605 0.330821,-0.453785 0.290746,-0.559223 -0.118449,-0.311489 -0.327914,-1.247309 -0.35354,-1.579428 -0.07445,-0.964467 0.277509,-1.877455 0.99599,-2.583604 0.163238,-0.160415 0.531171,-0.45116 0.817626,-0.646063 l 0.520841,-0.354358 0.02794,-0.532694 c 0.06147,-1.17746 0.322101,-1.878584 0.943215,-2.537009 0.507125,-0.537577 1.043743,-0.819206 2.041624,-1.071485 l 0.595743,-0.150593 0.221855,-0.508734 c 0.378008,-0.866761 0.773966,-1.41272 1.293311,-1.783306 0.770269,-0.549656 1.629438,-0.716195 2.904208,-0.562977 l 0.443653,0.05331 0.407021,-0.424067 c 0.908417,-0.946432 1.699627,-1.337225 2.707414,-1.337225 0.60404,0 1.090309,0.1316 1.845169,0.499364 l 0.596364,0.290519 0.455901,-0.228628 c 0.844353,-0.423474 1.33779,-0.561255 2.009987,-0.561255 0.48562,0 0.930402,0.10668 1.383566,0.331837 0.449919,0.223548 0.803459,0.499251 1.289276,1.005388 l 0.407021,0.424067 0.443653,-0.05317 c 0.986734,-0.118307 1.727285,-0.0442 2.333018,0.233342 0.845171,0.387293 1.372616,0.984984 1.864501,2.1128 l 0.221855,0.508734 0.595743,0.150593 c 0.964466,0.24384 1.437132,0.48229 1.96373,0.990657 0.641943,0.61976 0.95775,1.40668 1.011118,2.519482 0.01214,0.255581 0.03102,0.507661 0.04171,0.560183 0.01298,0.06395 0.132447,0.168487 0.36195,0.316653 1.222361,0.78915 1.782798,1.550642 1.950861,2.650688 0.08283,0.542374 -0.0127,1.24491 -0.278892,2.051275 -0.05918,0.179296 -0.09195,0.345469 -0.07391,0.375046 0.01778,0.02921 0.168967,0.236953 0.335958,0.461659 0.340388,0.458159 0.684868,1.121551 0.794004,1.529136 0.11159,0.416673 0.09991,1.33446 -0.0223,1.762647 -0.172522,0.603871 -0.498912,1.121862 -0.971663,1.542062 -0.313351,0.278497 -15.21491,10.744934 -15.51144,10.894794 -0.219936,0.111139 -0.724154,0.161967 -0.971917,0.09796 z"
       style="fill:#ffffff;fill-opacity:1;stroke-width:0.23263016" />
  </g>
</svg>
